<?xml version="1.0" standalone="no"?>
<!DOCTYPE svg PUBLIC "-//W3C//DTD SVG 20010904//EN"
 "http://www.w3.org/TR/2001/REC-SVG-20010904/DTD/svg10.dtd">
<svg version="1.0" xmlns="http://www.w3.org/2000/svg"
 width="1440.000000pt" height="1440.000000pt" viewBox="0 0 1440.000000 1440.000000"
 preserveAspectRatio="xMidYMid meet">
<g transform="translate(0.000000,1440.000000) scale(0.100000,-0.100000)"
fill="#000000" stroke="none">
<path d="M5748 11502 c-6 -7 -16 -11 -22 -10 -30 5 -108 -18 -169 -50 -140
-72 -268 -101 -458 -102 -89 0 -181 -32 -236 -83 -24 -22 -56 -47 -71 -56 -79
-45 -129 -79 -159 -111 -18 -19 -46 -49 -63 -67 -16 -17 -30 -40 -30 -50 0
-11 -7 -28 -15 -39 -22 -29 -18 -91 11 -169 52 -143 39 -397 -24 -455 -15 -14
-35 -38 -45 -53 -9 -15 -24 -27 -32 -27 -8 0 -18 -12 -21 -27 -4 -16 -20 -54
-36 -85 l-29 -58 21 -38 22 -39 -21 -41 c-11 -22 -30 -43 -41 -47 -42 -13 -49
-42 -51 -197 -2 -165 6 -187 78 -247 20 -16 43 -42 53 -56 17 -26 43 -48 160
-140 189 -147 224 -219 165 -337 -18 -35 -25 -66 -25 -104 0 -30 -7 -71 -15
-91 -8 -19 -15 -49 -15 -65 0 -16 -7 -45 -16 -66 -23 -56 -32 -288 -12 -327 9
-17 18 -66 22 -110 9 -117 42 -256 79 -335 11 -25 45 -84 74 -132 68 -111 93
-165 93 -207 0 -18 6 -54 14 -80 20 -64 36 -128 45 -181 5 -25 13 -58 20 -74
7 -17 11 -66 10 -110 -2 -47 2 -90 9 -103 22 -41 14 -114 -18 -168 -41 -69
-40 -111 7 -189 66 -108 121 -176 192 -236 73 -61 116 -79 234 -100 63 -12
111 -36 131 -68 4 -8 35 -45 68 -83 75 -88 142 -203 134 -233 -6 -25 17 -66
30 -53 4 4 3 22 -4 40 -23 65 24 430 59 455 29 20 25 83 -6 112 -14 13 -25 27
-25 32 0 4 -17 31 -37 60 -37 51 -38 54 -39 148 -2 97 -27 194 -58 219 -8 7
-17 36 -20 65 -8 59 -30 135 -70 239 -15 38 -24 72 -21 77 8 13 43 -10 48 -30
2 -10 19 -20 36 -23 23 -5 36 -15 46 -39 8 -19 37 -49 69 -72 31 -22 59 -49
62 -60 4 -12 13 -29 21 -38 13 -14 14 -25 5 -60 -6 -23 -8 -46 -5 -51 3 -6 7
-56 9 -111 1 -56 7 -135 14 -176 6 -41 11 -104 11 -140 -1 -36 4 -95 10 -132
9 -54 14 -68 28 -68 10 0 23 -14 32 -32 12 -28 18 -33 45 -30 56 5 93 -72 104
-216 6 -72 12 -98 28 -115 26 -29 36 -76 22 -112 -7 -20 -8 -31 0 -39 20 -20
40 19 49 95 5 47 19 98 39 139 37 79 52 149 52 238 0 38 5 73 10 78 14 14 70
171 80 224 13 72 36 134 51 138 27 8 39 36 39 89 0 42 4 55 18 60 9 3 25 13
34 21 43 37 76 -24 58 -108 -6 -30 -14 -115 -16 -189 -6 -136 -24 -212 -60
-252 -12 -13 -15 -92 -21 -440 -3 -233 -6 -437 -5 -454 1 -60 -21 -161 -43
-195 -44 -69 -65 -120 -65 -155 0 -20 -10 -60 -23 -88 -17 -37 -23 -67 -21
-107 2 -66 27 -166 47 -188 47 -55 29 -153 -41 -219 -29 -27 -42 -50 -47 -78
-4 -22 -10 -52 -15 -67 -5 -16 -5 -42 1 -63 6 -21 8 -70 4 -113 -13 -143 -12
-157 3 -191 12 -25 13 -38 4 -51 -9 -14 -8 -21 3 -30 21 -17 19 -43 -7 -75
-18 -24 -22 -42 -25 -149 -4 -148 2 -169 104 -399 81 -182 106 -226 148 -259
30 -23 152 -77 176 -78 21 0 190 -57 226 -75 15 -8 36 -15 47 -15 25 0 103
-26 206 -68 153 -63 210 -74 345 -69 66 3 147 10 180 16 68 14 168 62 254 123
86 61 120 81 171 101 25 9 67 35 94 58 57 46 156 106 236 142 123 54 185 171
230 427 9 53 8 74 -4 113 -8 27 -18 79 -22 115 -6 66 -33 122 -57 122 -6 0
-22 11 -36 24 -42 39 -76 38 -84 -2 -8 -39 26 -200 51 -242 18 -31 19 -41 10
-82 -7 -31 -17 -48 -29 -51 -10 -3 -23 -17 -29 -31 -5 -15 -18 -29 -27 -33
-23 -8 -33 -23 -33 -50 0 -34 -45 -80 -85 -87 -38 -7 -98 8 -127 32 -9 8 -29
44 -43 80 -15 37 -35 76 -45 87 -10 11 -25 34 -33 50 -8 17 -38 58 -66 93 -32
39 -52 76 -56 100 -4 20 -13 57 -21 81 -8 25 -14 52 -14 62 0 9 -11 41 -25 70
-25 55 -32 67 -73 130 -30 47 -30 89 -1 208 19 80 29 102 70 153 54 68 69 117
74 243 2 55 12 105 30 158 25 71 27 87 23 186 -4 86 -9 118 -26 150 -40 77
-21 169 29 141 37 -21 59 28 59 132 0 65 -5 93 -21 123 -50 97 -66 158 -72
276 -7 130 -30 234 -58 265 -10 11 -19 24 -19 30 0 5 -8 23 -17 39 -13 24 -17
67 -19 229 -2 149 -7 212 -19 251 -13 41 -15 64 -7 120 9 65 8 76 -19 156 -22
67 -29 104 -29 165 0 100 20 146 90 204 29 25 81 73 116 107 48 47 72 63 101
68 21 3 55 10 76 15 39 8 67 5 103 -12 11 -5 36 -8 55 -6 30 3 35 7 39 38 4
24 10 34 20 31 8 -2 20 -3 25 -2 41 4 53 9 74 30 34 34 106 26 161 -18 60 -48
112 -51 195 -11 50 24 72 42 92 74 14 22 39 53 56 67 27 23 30 30 24 67 -4 30
-1 47 10 57 19 19 57 19 73 0 15 -18 61 -20 77 -4 6 6 21 16 34 23 12 6 36 28
53 49 24 30 31 51 37 103 6 61 9 67 49 102 54 46 108 68 116 47 8 -19 -21
-103 -50 -145 -13 -19 -27 -51 -31 -70 -4 -19 -13 -44 -19 -55 -7 -11 -23 -50
-35 -87 -12 -39 -39 -90 -62 -120 -87 -113 -117 -155 -144 -203 -16 -27 -43
-67 -61 -87 -35 -39 -39 -56 -49 -216 -3 -53 -14 -116 -25 -145 -26 -73 -40
-155 -50 -315 -5 -77 -15 -154 -24 -177 -32 -84 -14 -165 37 -165 27 0 91 38
127 75 19 19 38 35 42 35 17 0 119 113 161 179 59 91 61 106 76 511 8 201 10
221 40 314 17 55 35 104 40 110 5 6 18 45 30 86 45 156 57 185 88 217 32 35
63 108 63 151 0 13 6 36 14 50 30 61 40 101 41 172 0 41 5 84 11 95 6 11 14
52 17 90 9 121 -17 156 -67 90 -23 -29 -27 -43 -22 -70 8 -39 -17 -88 -79
-159 l-39 -46 -32 31 c-27 26 -38 30 -61 25 -31 -8 -103 -79 -103 -102 0 -33
-75 -143 -109 -160 -19 -9 -38 -28 -44 -44 -15 -39 -64 -63 -111 -55 -45 9
-164 -23 -177 -47 -12 -22 -71 -58 -96 -58 -10 0 -40 23 -67 51 -45 48 -47 52
-41 92 13 85 24 107 55 107 15 0 32 6 38 13 27 32 -60 167 -107 167 -25 0 -27
17 -6 56 8 16 15 39 15 52 0 29 21 28 50 -3 13 -14 29 -25 35 -25 23 0 57 -49
62 -89 4 -32 14 -49 44 -75 22 -18 39 -37 39 -43 0 -18 34 -41 65 -44 70 -5
86 1 135 51 41 40 50 55 50 85 l0 35 -62 1 c-82 1 -112 10 -116 34 -3 28 77
78 177 110 85 28 151 76 151 110 0 10 18 46 40 79 35 54 39 69 41 127 1 37 -2
72 -6 79 -13 21 -7 71 11 91 20 22 101 69 119 69 7 0 18 7 25 15 23 28 -2 61
-62 81 -29 9 -74 30 -99 46 -25 15 -50 28 -55 28 -24 0 -85 23 -99 36 -8 9
-15 27 -15 42 0 15 -11 45 -25 67 -13 22 -25 47 -25 56 0 23 -57 96 -79 102
-33 8 -98 -29 -127 -73 -18 -26 -66 -68 -136 -116 -81 -56 -112 -84 -123 -110
-8 -19 -19 -34 -24 -34 -6 0 -18 -9 -28 -19 -13 -14 -39 -21 -90 -26 l-73 -8
-21 49 c-11 27 -26 52 -34 57 -24 13 -64 96 -75 154 -5 31 -19 66 -30 78 -11
12 -26 42 -34 67 -7 26 -23 59 -35 74 -11 14 -18 30 -15 35 2 5 -2 19 -10 31
-8 13 -21 52 -30 88 -15 64 -14 66 10 120 14 30 27 71 28 90 10 133 22 199 47
255 31 69 54 93 124 130 28 14 68 37 89 50 28 16 62 25 118 30 103 9 112 23
69 101 -17 30 -37 80 -45 112 -9 38 -28 77 -57 115 -40 55 -109 107 -139 107
-7 0 -34 13 -59 30 -26 16 -76 37 -111 46 -73 18 -161 59 -173 80 -10 18 -60
44 -84 44 -10 0 -29 9 -43 20 -14 11 -40 20 -58 20 -41 0 -103 31 -162 80 -64
53 -78 55 -172 26 -46 -13 -101 -29 -124 -35 -64 -17 -124 -71 -164 -148 -22
-42 -49 -76 -69 -90 -33 -23 -35 -23 -65 -5 -16 10 -44 41 -62 70 -37 63 -71
101 -110 125 -16 9 -53 33 -83 52 -60 38 -52 37 -391 35 -129 -1 -156 10 -153
61 4 58 -17 117 -54 149 -18 17 -37 30 -41 30 -5 0 -16 17 -25 38 -9 20 -35
50 -57 65 -38 27 -41 28 -99 16 -52 -10 -63 -9 -105 10 -37 16 -65 20 -127 18
-50 -1 -85 -7 -91 -15z m490 -1286 c37 -19 111 -96 133 -139 9 -18 43 -86 75
-152 32 -66 73 -136 91 -156 19 -20 42 -61 52 -90 11 -30 29 -75 41 -102 14
-32 22 -74 25 -130 4 -81 3 -83 -37 -150 -27 -45 -59 -82 -93 -107 -28 -21
-73 -57 -99 -79 -79 -69 -102 -62 -271 72 -33 26 -69 47 -80 47 -12 0 -39 18
-60 40 -21 22 -46 40 -54 40 -8 0 -35 21 -60 48 -25 26 -65 59 -88 74 -32 21
-49 42 -67 82 -13 30 -35 61 -48 70 -33 22 -68 95 -68 142 0 23 8 49 20 64 11
14 20 37 20 52 0 45 18 78 55 99 19 12 49 43 67 70 17 27 46 58 65 69 20 12
41 38 55 67 21 45 28 50 88 70 75 26 186 26 238 -1z m1912 -513 c0 -37 -14
-57 -34 -50 -19 7 -21 48 -4 65 21 21 38 14 38 -15z m-7 -130 c6 -52 0 -73
-14 -52 -11 18 -12 99 0 99 4 0 11 -21 14 -47z m1115 -696 c2 -43 -1 -59 -12
-63 -26 -10 -53 14 -64 58 -13 52 -2 70 42 66 30 -3 31 -4 34 -61z m-693
-1058 c-10 -32 -29 -6 -20 28 6 24 8 26 16 10 6 -10 7 -27 4 -38z m-1306
-3338 c13 -8 74 -138 92 -196 5 -16 14 -60 19 -97 12 -80 47 -164 83 -198 34
-32 35 -78 4 -117 -13 -15 -26 -36 -30 -46 -9 -23 -55 -40 -95 -33 -18 2 -51
21 -75 40 -23 20 -62 51 -87 68 -28 21 -54 52 -70 83 -22 44 -25 63 -25 165 0
112 1 117 38 200 55 121 99 161 146 131z"/>
<path d="M9470 11041 c-42 -12 -51 -56 -45 -226 5 -120 10 -159 27 -200 26
-61 72 -122 99 -130 25 -8 39 3 101 85 47 61 49 68 43 110 -3 25 -9 77 -14
116 -9 75 -25 110 -94 203 -40 53 -56 59 -117 42z"/>
<path d="M9589 10231 c-9 -31 -9 -47 0 -69 16 -38 16 -96 1 -151 -14 -55 -4
-230 18 -285 12 -31 13 -47 4 -85 -22 -91 -26 -138 -23 -251 2 -70 7 -120 14
-127 23 -23 89 -17 158 14 57 27 73 41 122 106 32 42 72 86 90 98 70 49 138
113 143 135 8 31 -29 90 -61 98 -16 4 -38 26 -59 59 -19 28 -50 67 -70 85 -20
18 -36 36 -36 40 0 4 -21 24 -48 44 -34 26 -56 55 -80 105 -19 37 -37 75 -42
83 -4 9 -11 30 -15 48 -8 36 -61 92 -87 92 -11 0 -21 -13 -29 -39z"/>
<path d="M8366 7421 c-7 -10 31 -61 45 -61 5 0 9 8 9 18 -1 20 -46 56 -54 43z"/>
<path d="M5804 5686 c-3 -8 0 -25 6 -37 29 -54 59 -238 67 -413 4 -99 2 -125
-13 -157 -14 -32 -16 -57 -11 -139 6 -119 -7 -189 -57 -289 -26 -52 -34 -84
-37 -132 -5 -120 -1 -148 26 -173 17 -16 25 -34 25 -56 0 -17 6 -44 14 -58 8
-15 22 -52 32 -82 14 -47 30 -68 107 -142 50 -48 93 -86 95 -83 2 2 -1 18 -7
36 -6 18 -11 46 -11 64 0 17 -7 40 -15 51 -8 10 -15 37 -15 58 0 34 -10 79
-27 121 -11 28 -34 61 -52 75 -17 13 -21 30 -26 114 -2 55 -9 104 -15 110 -18
18 -11 56 16 92 26 33 27 39 21 119 -6 78 -4 86 18 117 52 71 54 96 13 223 -5
17 -11 71 -13 120 -3 50 -11 113 -20 140 -8 28 -15 63 -15 78 0 15 -6 40 -14
55 -7 15 -16 52 -19 82 -8 83 -55 152 -73 106z"/>
</g>
</svg>
