<?xml version="1.0" standalone="no"?>
<!DOCTYPE svg PUBLIC "-//W3C//DTD SVG 20010904//EN"
 "http://www.w3.org/TR/2001/REC-SVG-20010904/DTD/svg10.dtd">
<svg version="1.0" xmlns="http://www.w3.org/2000/svg"
 width="600.000000pt" height="338.000000pt" viewBox="0 0 600.000000 338.000000"
 preserveAspectRatio="xMidYMid meet">
<g transform="translate(0.000000,338.000000) scale(0.100000,-0.100000)"
fill="#000000" stroke="none">
<path d="M2715 3324 c-422 -41 -761 -122 -1075 -256 -1066 -456 -1444 -1360
-881 -2104 426 -563 1286 -914 2241 -914 802 0 1543 247 2020 674 688 614 632
1469 -135 2045 -368 277 -839 455 -1420 537 -105 15 -649 28 -750 18z m719
-229 c360 -44 655 -130 829 -245 153 -100 206 -198 172 -316 -41 -143 -279
-285 -614 -368 -115 -29 -230 -50 -236 -44 -3 2 -14 53 -25 114 -99 517 -320
856 -560 856 -234 0 -458 -336 -555 -832 -14 -74 -28 -136 -30 -138 -6 -6
-122 16 -236 44 -334 83 -573 225 -614 368 -34 118 19 216 172 316 203 134
613 239 1023 264 132 8 549 -4 674 -19z m-352 -401 c75 -39 159 -164 208 -311
31 -94 74 -282 67 -290 -3 -2 -76 -9 -163 -14 -148 -10 -378 -6 -502 7 l-52 6
6 37 c29 174 90 347 157 448 85 127 181 168 279 117z m-1931 -289 c46 -256
377 -487 890 -624 63 -16 155 -37 204 -46 50 -9 100 -18 111 -21 21 -4 22 -11
28 -151 25 -592 148 -1019 364 -1263 l53 -60 -40 0 c-72 0 -323 39 -447 69
-214 53 -391 118 -567 208 -359 184 -622 433 -767 728 -103 209 -143 410 -120
613 23 208 85 374 212 563 53 79 63 90 66 69 1 -14 7 -52 13 -85z m3766 33
c132 -193 200 -369 223 -580 23 -203 -17 -404 -120 -613 -217 -442 -699 -779
-1334 -936 -124 -30 -375 -69 -447 -69 l-41 0 54 59 c213 236 339 673 364
1264 6 140 7 147 28 151 11 3 62 12 111 21 403 73 768 234 950 419 99 101 155
218 155 326 0 17 2 30 4 30 2 0 26 -33 53 -72z m-1927 -771 c107 0 239 3 293
7 l97 8 0 -79 c0 -185 -63 -479 -136 -629 -65 -137 -160 -224 -244 -224 -84 0
-177 85 -243 223 -74 151 -137 444 -137 630 l0 79 88 -8 c48 -4 175 -7 282 -7z"/>
</g>
</svg>
